<svg xmlns="http://www.w3.org/2000/svg" width="1024" height="1024" viewBox="0 0 1024 1024" version="1.1">
	<path d="M 517.101 30.750 C 166.181 30.935, 39.344 31.299, 38.351 32.123 C 36.266 33.854, 36.339 996.206, 38.424 997.937 C 40.408 999.584, 995.685 999.506, 997.669 997.859 C 998.774 996.943, 999 914.750, 999 514.949 C 999 78.277, 998.853 32.996, 997.429 31.571 C 996.564 30.707, 995.552 30.112, 995.179 30.249 C 994.805 30.386, 779.671 30.611, 517.101 30.750 M 179.500 101 L 110.500 101.500 109.886 129.500 C 109.549 144.900, 109.325 330.655, 109.390 542.288 C 109.493 882.786, 109.679 927.186, 111.003 928.023 C 113.042 929.312, 922.961 929.310, 925 928.021 C 926.329 927.181, 926.500 880.194, 926.500 514.956 C 926.500 126.461, 926.401 102.767, 924.781 101.582 C 923.408 100.578, 855.121 100.343, 585.781 100.413 C 400.277 100.461, 217.450 100.725, 179.500 101 M 693.637 321.795 C 693.302 410.183, 692.799 502.975, 692.519 528 C 692.239 553.025, 691.989 595.775, 691.964 623 L 691.919 672.500 688.991 669.076 C 687.381 667.192, 679.636 656.272, 671.782 644.808 C 663.927 633.344, 651.711 615.535, 644.636 605.232 C 637.560 594.930, 624.531 575.925, 615.681 563 C 606.832 550.075, 595.561 533.650, 590.634 526.500 C 580.092 511.199, 570.737 497.505, 550.331 467.500 C 542.102 455.400, 531.149 439.425, 525.991 432 C 520.832 424.575, 513.237 413.550, 509.113 407.500 C 497.386 390.297, 441.297 308.894, 431.598 295 C 426.798 288.125, 418.154 275.750, 412.388 267.500 C 406.622 259.250, 390.602 236.075, 376.787 216 C 362.973 195.925, 349.249 176.085, 346.290 171.910 L 340.909 164.321 310.792 163.660 C 294.227 163.297, 265.520 163, 246.999 163 L 213.323 163 212.651 443.250 C 212.281 597.388, 211.959 754.100, 211.935 791.500 L 211.891 859.500 269.330 859.758 L 326.769 860.016 327.375 842.258 C 327.708 832.491, 328.270 743.275, 328.623 644 C 328.977 544.725, 329.544 442.377, 329.883 416.560 L 330.500 369.619 348.589 396.060 C 358.539 410.602, 376.122 436.225, 387.663 453 C 399.205 469.775, 417.615 496.786, 428.574 513.025 C 448.194 542.096, 485.399 596.790, 504 623.904 C 509.225 631.521, 519.575 646.837, 527 657.940 C 534.425 669.043, 546.575 687.070, 554 698 C 561.425 708.930, 573.350 726.551, 580.500 737.158 C 601.574 768.421, 654.046 845.734, 660.965 855.715 C 666.985 864.400, 667.587 864.959, 671.426 865.422 C 673.667 865.692, 705.035 866.124, 741.134 866.382 L 806.768 866.852 807.378 827.676 C 807.946 791.206, 809.279 586.291, 810.881 289 C 811.253 219.975, 811.320 163.219, 811.029 162.876 C 810.738 162.533, 784.343 161.991, 752.373 161.671 L 694.246 161.090 693.637 321.795" stroke="none" fill="black" fill-rule="evenodd"/>
</svg>