<svg xmlns="http://www.w3.org/2000/svg" version="1.1" xmlns:xlink="http://www.w3.org/1999/xlink" xmlns:svgjs="http://svgjs.dev/svgjs" width="1000" height="1000" viewBox="0 0 1000 1000"><g transform="matrix(1,0,0,1,-0.14221556886212738,-0.14221556886229791)"><svg viewBox="0 0 334 334" data-background-color="#ffffff" preserveAspectRatio="xMidYMid meet" height="1000" width="1000" xmlns="http://www.w3.org/2000/svg" xmlns:xlink="http://www.w3.org/1999/xlink"><g id="tight-bounds" transform="matrix(1,0,0,1,0.04749999999998522,0.04750000000001364)"><svg viewBox="0 0 333.90454557049503 333.90454557049503" height="333.90454557049503" width="333.90454557049503"><g><svg></svg></g><g><svg viewBox="0 0 333.90454557049503 333.90454557049503" height="333.90454557049503" width="333.90454557049503"><g><path d="M0 166.952c0-92.205 74.747-166.952 166.952-166.952 92.205 0 166.952 74.747 166.953 166.952 0 92.205-74.747 166.952-166.953 166.953-92.205 0-166.952-74.747-166.952-166.953zM166.952 316.63c82.665 0 149.677-67.013 149.678-149.678 0-82.665-67.013-149.677-149.678-149.677-82.665 0-149.677 67.013-149.677 149.677 0 82.665 67.013 149.677 149.677 149.678z" data-fill-palette-color="tertiary" fill="#d16262" stroke="transparent"></path><ellipse rx="160.27418187383762" ry="160.27418187383762" cx="166.95227278524752" cy="166.95227278524752" fill="#d16262" stroke="transparent" stroke-width="0" fill-opacity="1" data-fill-palette-color="tertiary"></ellipse></g><g transform="matrix(1,0,0,1,93.6643388013751,71.17305217166896)"><svg viewBox="0 0 146.57586796774484 191.55844122715712" height="191.55844122715712" width="146.57586796774484"><g><svg viewBox="0 0 146.57586796774484 191.55844122715712" height="191.55844122715712" width="146.57586796774484"><g><svg viewBox="0 0 146.57586796774484 191.55844122715712" height="191.55844122715712" width="146.57586796774484"><g><svg viewBox="0 0 146.57586796774484 191.55844122715712" height="191.55844122715712" width="146.57586796774484"><g><svg viewBox="0 0 146.57586796774484 191.55844122715712" height="191.55844122715712" width="146.57586796774484"><g><svg viewBox="0 0 146.57586796774484 191.55844122715712" height="191.55844122715712" width="146.57586796774484"><g transform="matrix(1,0,0,1,0,0)"><svg width="146.57586796774484" viewBox="3.9100000858306885 -30.489999771118164 23.380001068115234 30.559999465942383" height="191.55844122715712" data-palette-color="#ffffff"><path d="M5.66 0.07Q4.74 0.07 4.32-0.16 3.91-0.39 3.91-0.88L3.91-0.88 3.91-29.52Q3.91-30.49 5.66-30.49L5.66-30.49 6.57-30.49Q7.25-30.49 7.65-30.3 8.06-30.1 8.37-29.66L8.37-29.66 22.24-8.74 23.54-6.3 23.54-29.52Q23.54-30.49 25.24-30.49L25.24-30.49 25.59-30.49Q27.29-30.49 27.29-29.52L27.29-29.52 27.29-0.88Q27.29-0.39 26.88-0.16 26.46 0.07 25.59 0.07L25.59 0.07 24.71 0.07Q24.1 0.07 23.73-0.07 23.36-0.22 23.17-0.54L23.17-0.54 8.86-22.12 7.69-24.37 7.69-0.88Q7.69 0.07 5.96 0.07L5.96 0.07 5.66 0.07Z" opacity="1" transform="matrix(1,0,0,1,0,0)" fill="#ffffff" class="undefined-text-0" data-fill-palette-color="quaternary" id="text-0"></path></svg></g></svg></g></svg></g></svg></g><g></g></svg></g></svg></g></svg></g></svg></g><defs></defs></svg><rect width="333.90454557049503" height="333.90454557049503" fill="none" stroke="none" visibility="hidden"></rect></g></svg></g></svg>